<svg enable-background="new 0 0 512 512" viewBox="0 0 512 512" xmlns="http://www.w3.org/2000/svg"><path d="m406.261 122.435v-105.739c0-9.223-7.479-16.696-16.696-16.696h-267.13c-9.217 0-16.696 7.473-16.696 16.696v105.739c0 3.401.287 6.731.51 10.076h299.501c.224-3.346.511-6.675.511-10.076z" fill="#dbe9fd"/><path d="m389.565 0h-133.565v132.511h149.751c.224-3.346.51-6.675.51-10.076v-105.739c0-9.223-7.479-16.696-16.696-16.696z" fill="#c5dcfd"/><path d="m389.565 512h-267.13c-9.217 0-16.696-7.473-16.696-16.696v-105.739c0-82.853 67.403-150.261 150.261-150.261s150.261 67.408 150.261 150.261v105.739c0 9.223-7.479 16.696-16.696 16.696z" fill="#dbe9fd"/><path d="m389.565 512c9.217 0 16.696-7.473 16.696-16.696v-105.739c0-82.853-67.403-150.261-150.261-150.261v272.696z" fill="#c5dcfd"/><path d="m256 311.652c-9.217 0-16.696-7.473-16.696-16.696v-33.391c0-9.223 7.479-16.696 16.696-16.696s16.696 7.473 16.696 16.696v33.391c0 9.223-7.479 16.696-16.696 16.696z" fill="#efbe44"/><path d="m256 411.826c-9.217 0-16.696-7.473-16.696-16.696v-33.391c0-9.223 7.479-16.696 16.696-16.696s16.696 7.473 16.696 16.696v33.391c0 9.223-7.479 16.696-16.696 16.696z" fill="#efbe44"/><path d="m272.696 395.13v-33.391c0-9.223-7.479-16.696-16.696-16.696v66.783c9.217 0 16.696-7.473 16.696-16.696z" fill="#e4a738"/><path d="m389.565 512h-267.13c-7.032 0-13.304-4.402-15.696-11.011s-.392-14.011 5.011-18.511l112.185-93.489c18.587-15.478 45.544-15.478 64.13 0l112.186 93.49c5.403 4.5 7.402 11.902 5.011 18.511s-8.665 11.01-15.697 11.01z" fill="#efbe44"/><path d="m389.565 512c7.032 0 13.304-4.402 15.696-11.011s.392-14.011-5.011-18.511l-112.185-93.489c-9.294-7.739-20.679-11.609-32.066-11.609v134.62z" fill="#e4a738"/><path d="m422.957 512h-333.914c-9.217 0-16.696-7.473-16.696-16.696s7.479-16.696 16.696-16.696h333.913c9.217 0 16.696 7.473 16.696 16.696s-7.478 16.696-16.695 16.696z" fill="#6e6057"/><path d="m422.957 478.609h-166.957v33.391h166.957c9.217 0 16.696-7.473 16.696-16.696s-7.479-16.695-16.696-16.695z" fill="#615349"/><path d="m106.249 132.511c5.351 80.037 71.946 140.185 149.751 140.185 77.899 0 144.406-60.254 149.751-140.184h-299.502z" fill="#efbe44"/><path d="m256 272.696c77.899 0 144.406-60.252 149.751-140.184h-149.751z" fill="#e4a738"/><path d="m422.957 33.391h-333.914c-9.217 0-16.696-7.473-16.696-16.696s7.479-16.695 16.696-16.695h333.913c9.217 0 16.696 7.473 16.696 16.696s-7.478 16.695-16.695 16.695z" fill="#6e6057"/><path d="m422.957 0h-166.957v33.391h166.957c9.217 0 16.696-7.473 16.696-16.696s-7.479-16.695-16.696-16.695z" fill="#615349"/><path d="m272.696 294.957v-33.391c0-9.223-7.479-16.696-16.696-16.696v66.783c9.217-.001 16.696-7.474 16.696-16.696z" fill="#e4a738"/></svg>